<?xml version="1.0" standalone="no"?>
<!DOCTYPE svg PUBLIC "-//W3C//DTD SVG 20010904//EN"
 "http://www.w3.org/TR/2001/REC-SVG-20010904/DTD/svg10.dtd">
<svg version="1.0" xmlns="http://www.w3.org/2000/svg"
 width="1265.000000pt" height="1265.000000pt" viewBox="0 0 1265.000000 1265.000000"
 preserveAspectRatio="xMidYMid meet">
<metadata>
Created by potrace 1.11, written by Peter Selinger 2001-2013
</metadata>
<g transform="translate(0.000000,1265.000000) scale(0.100000,-0.100000)"
fill="#000000" stroke="none">
<path d="M6246 11237 c-16 -50 -63 -193 -103 -317 -41 -124 -105 -319 -143
-435 -37 -115 -121 -371 -185 -567 l-117 -358 -51 -1 c-29 0 -60 -2 -70 -4
-10 -2 -62 -6 -115 -10 -53 -4 -108 -8 -122 -10 -14 -2 -50 -7 -80 -10 -57 -6
-109 -12 -170 -20 -44 -6 -99 -12 -170 -20 -51 -6 -159 -21 -222 -31 -16 -2
-40 -6 -55 -8 -23 -4 -336 -55 -436 -72 -58 -9 -346 -74 -442 -99 -287 -75
-622 -168 -696 -194 -349 -122 -517 -185 -599 -223 -363 -172 -610 -295 -632
-315 -10 -9 -18 -13 -18 -10 0 13 -461 -281 -590 -376 -379 -280 -736 -677
-913 -1017 -69 -133 -178 -415 -192 -500 -3 -19 -10 -51 -15 -70 -45 -184 -40
-601 10 -770 6 -19 13 -48 16 -65 11 -68 106 -309 177 -450 52 -106 165 -275
273 -410 154 -193 466 -491 648 -620 16 -11 40 -29 55 -41 35 -27 383 -247
502 -317 246 -144 620 -315 1009 -462 113 -42 220 -84 238 -92 18 -8 40 -16
50 -18 9 -1 67 -17 127 -35 61 -18 117 -34 125 -35 8 -2 49 -13 90 -24 426
-118 709 -182 1000 -227 19 -3 100 -16 180 -29 80 -13 170 -27 200 -30 30 -4
62 -9 70 -10 8 -1 49 -6 90 -10 41 -4 83 -9 93 -11 10 -2 48 -6 85 -10 36 -3
74 -7 83 -9 10 -2 44 -6 76 -10 32 -3 72 -8 88 -10 17 -2 80 -7 140 -11 99 -6
147 -10 167 -13 3 -1 18 -34 33 -73 15 -40 38 -100 50 -133 78 -204 315 -843
315 -849 0 -4 8 -26 19 -49 10 -23 49 -125 86 -227 37 -102 73 -191 81 -199
12 -13 13 -12 10 6 -3 12 29 119 70 240 41 120 92 270 113 333 22 63 94 275
161 470 67 195 128 375 136 400 23 78 23 77 179 85 77 3 149 8 160 10 11 2 62
7 113 10 51 4 100 8 110 9 9 2 44 7 77 10 54 6 157 19 255 31 19 3 57 7 84 10
58 5 100 11 226 31 52 8 106 16 120 19 130 19 144 22 168 29 9 3 39 7 67 11
42 5 93 15 225 41 77 16 212 47 297 70 54 14 106 27 115 29 36 8 365 97 409
111 25 8 54 17 65 19 78 18 116 31 249 80 384 145 556 217 839 354 253 122
393 203 741 429 63 41 263 187 275 202 3 3 30 25 60 50 133 108 427 420 510
540 13 19 30 41 37 48 7 7 20 26 30 42 9 17 21 30 25 30 4 0 8 5 8 11 0 6 14
31 31 56 93 135 225 444 270 633 28 114 27 110 35 187 4 37 8 82 10 98 5 42 4
284 -1 320 -2 17 -7 57 -10 90 -23 224 -162 594 -312 827 -150 234 -402 517
-638 717 -130 110 -248 197 -372 276 -43 27 -116 74 -163 104 -197 125 -388
230 -620 339 -47 22 -148 70 -225 107 -77 37 -207 91 -290 120 -82 29 -206 73
-275 98 -106 39 -181 63 -225 73 -5 1 -66 18 -135 37 -345 96 -794 205 -915
221 -22 2 -148 23 -280 45 -132 22 -265 43 -295 46 -30 4 -66 8 -80 10 -14 1
-52 6 -85 10 -33 3 -70 8 -83 10 -13 2 -53 7 -90 10 -37 4 -78 8 -92 11 -14 2
-52 6 -85 9 -33 3 -80 8 -105 10 -49 5 -230 17 -270 19 -15 0 -28 9 -33 21
-10 24 -158 448 -193 555 -14 41 -29 84 -34 95 -5 11 -41 115 -80 230 -39 116
-115 334 -167 485 -53 151 -103 299 -112 327 -9 29 -18 53 -21 53 -3 0 -18
-42 -34 -93z m-1027 -2031 c-2 -2 -42 -23 -89 -47 -127 -64 -378 -235 -504
-343 -220 -188 -434 -440 -591 -694 -42 -68 -62 -91 -74 -88 -9 3 -77 22 -151
41 -180 48 -465 145 -625 213 -71 30 -177 74 -235 97 -58 24 -130 54 -160 67
-30 14 -71 31 -90 39 -19 7 -51 21 -70 30 l-34 17 34 14 c19 8 121 50 225 92
105 43 208 86 230 96 65 28 191 70 445 146 272 81 302 89 359 99 19 3 37 7 40
9 3 2 22 7 41 10 19 3 67 12 105 21 206 45 486 102 537 109 21 3 75 12 120 20
131 23 139 24 223 31 44 4 105 10 135 13 70 9 134 13 129 8z m2386 -21 c61 -9
128 -18 150 -21 22 -3 67 -9 100 -14 33 -5 80 -12 105 -15 25 -3 52 -8 60 -10
8 -2 38 -6 65 -10 28 -3 68 -11 90 -17 22 -5 51 -12 65 -14 14 -3 126 -27 250
-55 124 -28 232 -52 240 -54 9 -2 87 -22 175 -45 286 -75 615 -189 880 -305
125 -54 163 -75 137 -75 -6 0 -42 -14 -79 -31 -38 -17 -86 -39 -108 -49 -22
-9 -60 -27 -85 -38 -293 -135 -575 -246 -790 -311 -58 -17 -127 -38 -154 -46
-26 -8 -53 -15 -60 -15 -6 0 -29 28 -51 63 -131 204 -376 490 -590 688 -42 38
-160 129 -231 176 -11 7 -53 36 -94 64 -41 28 -115 74 -165 101 -110 61 -109
61 -60 54 22 -3 90 -13 150 -21z m-410 -201 c119 -56 296 -155 378 -211 43
-29 80 -53 83 -53 44 0 473 -406 549 -520 16 -25 60 -86 97 -137 l67 -92 -37
-10 c-40 -11 -156 -37 -193 -45 -13 -2 -80 -18 -149 -35 -119 -28 -305 -66
-380 -77 -19 -3 -40 -7 -46 -9 -22 -7 -32 13 -93 180 -35 94 -87 235 -117 315
-29 80 -102 279 -162 443 -123 334 -123 310 3 251z m-1681 14 c-9 -32 -148
-461 -189 -583 -18 -55 -72 -220 -119 -366 l-87 -266 -42 7 c-23 5 -60 11 -82
14 -36 5 -87 14 -330 60 -44 8 -93 18 -110 21 -16 3 -43 8 -60 11 -37 6 -235
53 -253 59 -8 3 15 47 70 131 67 101 114 157 238 283 85 87 191 190 235 229
95 86 282 215 397 276 46 24 108 56 138 72 70 37 160 72 183 73 14 1 17 -4 11
-21z m4898 -675 c191 -106 175 -96 343 -207 83 -55 188 -132 235 -171 47 -39
114 -94 150 -122 90 -71 299 -286 409 -421 111 -136 221 -315 296 -483 31 -68
61 -132 66 -142 12 -22 78 -280 74 -287 -2 -3 -356 -5 -787 -4 l-783 1 -145
57 c-80 31 -154 61 -165 66 -25 10 -237 92 -620 240 -159 61 -324 125 -366
141 l-75 30 -16 62 c-49 194 -113 396 -152 482 -15 30 -26 59 -26 63 0 5 -12
33 -26 62 -41 85 -45 100 -31 104 242 74 403 128 492 167 11 4 83 33 160 63
163 64 554 241 705 320 58 31 109 56 113 56 5 0 72 -35 149 -77z m-8061 16
c367 -181 1124 -482 1319 -524 21 -5 154 -46 161 -51 3 -2 -11 -38 -31 -81
-55 -114 -113 -279 -155 -438 -20 -77 -38 -145 -40 -150 -1 -6 -65 -37 -141
-70 -77 -32 -161 -68 -189 -81 -74 -33 -863 -366 -986 -416 l-106 -43 -789 0
-789 0 3 25 c7 50 63 252 88 318 53 143 194 387 317 552 105 140 390 420 571
560 84 65 246 178 371 257 72 45 305 183 311 183 1 0 39 -18 85 -41z m1892
-678 c84 -21 223 -53 309 -71 87 -19 157 -35 155 -35 -1 -1 -153 -66 -337
-145 -184 -78 -370 -157 -412 -175 -43 -18 -78 -30 -78 -26 0 48 183 491 203
491 5 0 77 -17 160 -39z m4330 -58 c67 -141 176 -447 164 -459 -2 -3 -53 15
-113 39 -60 24 -283 110 -496 192 -213 83 -385 152 -382 154 2 3 15 6 27 8 12
2 45 7 72 13 28 5 66 11 85 14 51 8 327 71 455 105 61 16 117 30 126 30 10 1
31 -32 62 -96z m-6560 -1491 c12 -6 67 -30 122 -52 55 -23 114 -47 130 -55 17
-7 80 -33 140 -58 61 -25 128 -54 150 -63 22 -10 42 -18 45 -19 3 -1 16 -6 30
-12 28 -12 500 -210 772 -324 l177 -74 16 -65 c23 -96 21 -91 56 -213 30 -107
70 -229 89 -272 5 -11 23 -54 40 -95 18 -41 38 -87 45 -102 7 -15 10 -30 7
-32 -8 -4 -139 -46 -162 -51 -8 -2 -78 -26 -155 -55 -77 -28 -176 -64 -220
-80 -387 -135 -565 -207 -849 -344 -109 -53 -200 -96 -201 -96 -10 0 -222 128
-345 208 -434 283 -765 593 -997 934 -29 42 -53 79 -53 82 0 2 -18 35 -39 73
-84 146 -180 403 -204 548 -18 106 -27 203 -21 219 6 16 1395 14 1427 -2z
m9990 9 c5 -1 6 -4 4 -8 -3 -5 -8 -36 -11 -71 -3 -34 -10 -81 -15 -105 -6 -23
-13 -57 -16 -76 -11 -64 -55 -218 -70 -247 -8 -16 -15 -33 -15 -38 0 -22 -147
-305 -202 -388 -122 -186 -347 -432 -557 -608 -113 -95 -270 -214 -366 -277
-78 -52 -376 -232 -465 -282 -10 -5 -59 13 -150 58 -74 36 -171 82 -215 103
-44 20 -107 51 -140 70 -33 19 -82 42 -110 52 -27 11 -113 46 -190 78 -77 33
-203 82 -280 108 -264 92 -428 149 -430 152 -2 2 13 37 32 78 49 106 157 421
198 579 20 74 37 137 40 139 2 2 329 141 727 309 398 167 742 313 765 323 24
11 46 20 49 20 3 0 20 6 37 14 18 8 43 16 57 18 21 2 1298 1 1323 -1z m-7948
-866 c191 -80 491 -206 668 -281 70 -30 132 -54 139 -54 17 0 1 -13 -20 -16
-9 -2 -30 -5 -47 -8 -16 -3 -48 -8 -70 -12 -80 -11 -320 -64 -496 -109 -75
-19 -140 -35 -146 -35 -26 0 -233 521 -233 587 0 15 -12 19 205 -72z m4689 39
c-14 -94 -218 -582 -241 -577 -6 1 -21 4 -34 7 -13 2 -66 16 -117 30 -51 15
-186 47 -300 72 -303 65 -304 66 -300 69 2 1 75 32 163 69 88 37 174 74 192
82 17 8 34 14 37 14 3 0 31 12 63 26 32 14 67 30 78 34 11 5 43 18 70 30 382
164 392 167 389 144z m-1179 -664 c249 -39 789 -166 778 -183 -46 -77 -176
-250 -239 -317 -23 -25 -52 -57 -65 -71 -13 -15 -38 -42 -55 -60 -16 -19 -59
-59 -93 -89 -35 -30 -69 -60 -75 -65 -6 -6 -31 -26 -56 -45 -25 -19 -47 -37
-50 -40 -12 -14 -140 -99 -185 -125 -230 -127 -334 -179 -424 -210 -57 -20
-105 -34 -107 -32 -2 2 10 44 27 93 42 121 244 709 279 814 25 74 102 300 115
338 5 13 13 13 150 -8z m-2500 -55 c23 -59 188 -501 225 -600 10 -27 32 -86
48 -130 17 -44 40 -107 52 -140 12 -33 25 -69 30 -80 23 -56 70 -188 67 -191
-7 -7 -255 105 -327 148 -128 76 -283 179 -325 216 -36 32 -228 208 -279 257
-12 11 -68 76 -124 144 -124 146 -208 272 -189 282 21 12 308 77 422 95 17 3
95 18 175 34 198 39 197 39 225 -35z m-1004 -287 c158 -234 290 -402 388 -493
30 -27 67 -62 82 -77 186 -178 499 -397 692 -483 37 -16 67 -34 67 -38 0 -5
-3 -6 -7 -4 -5 3 -35 8 -68 11 -33 4 -76 8 -95 11 -19 2 -57 7 -85 10 -27 4
-61 8 -75 10 -74 10 -109 15 -150 20 -25 3 -76 10 -115 15 -38 6 -86 12 -105
14 -109 14 -401 75 -680 143 -14 3 -29 7 -35 8 -135 32 -580 171 -855 268
-125 44 -405 160 -444 184 -5 3 38 25 95 48 57 23 129 54 159 70 30 15 118 51
195 81 77 29 176 66 220 83 205 78 663 230 727 240 3 1 43 -54 89 -121z m4706
43 c171 -56 456 -162 618 -230 77 -33 156 -64 176 -70 20 -7 111 -49 203 -95
l167 -83 -144 -61 c-183 -79 -428 -167 -659 -238 -101 -30 -192 -57 -203 -60
-12 -2 -46 -12 -77 -23 -120 -41 -548 -131 -833 -175 -22 -4 -89 -15 -150 -26
-120 -21 -289 -46 -375 -56 -30 -3 -74 -10 -97 -14 -24 -4 -43 -5 -43 -1 0 4
39 26 87 50 118 58 418 257 522 346 230 195 456 451 616 698 28 42 55 77 62
77 6 0 65 -17 130 -39z"/>
</g>
</svg>
